<?xml version="1.0" encoding="utf-8"?>
<!-- Generator: Adobe Illustrator 15.0.0, SVG Export Plug-In . SVG Version: 6.00 Build 0)  -->
<!DOCTYPE svg PUBLIC "-//W3C//DTD SVG 1.1//EN" "http://www.w3.org/Graphics/SVG/1.1/DTD/svg11.dtd">
<svg version="1.1" id="Capa_1" xmlns="http://www.w3.org/2000/svg" xmlns:xlink="http://www.w3.org/1999/xlink" x="0px" y="0px"
	 width="2710.155px" height="1134.818px" viewBox="57.459 842.733 2710.155 1134.818"
	 enable-background="new 57.459 842.733 2710.155 1134.818" xml:space="preserve">
<g>
	<g>
		<path fill="#23467D" d="M335.178,1556.184c9.577,0,14.365,4.789,14.365,14.365l-4.788,38.307c0,9.576-4.788,14.363-14.365,14.363
			h-90.977l-43.094,330.391c0,9.576-4.789,14.365-14.365,14.365h-52.671c-9.577,0-14.365-4.789-14.365-14.365l43.095-330.391H71.824
			c-9.576,0-14.365-4.787-14.365-14.363l4.789-38.307c0-9.576,4.788-14.365,19.153-14.365H335.178L335.178,1556.184z"/>
		<path fill="#23467D" d="M450.097,1814.75l-19.153,143.648c0,9.576-4.788,14.363-14.365,14.363h-52.671
			c-9.577,0-14.365-4.787-14.365-14.363l47.883-383.061c0-9.578,4.788-14.365,14.365-14.365h124.495
			c100.554,0,138.859,43.094,138.859,95.766c0,4.787,0,9.576,0,14.363l-4.788,52.672c-4.788,38.307-23.941,71.824-76.612,86.188
			l47.883,153.225c4.788,9.578-4.788,14.365-14.365,14.365h-52.671c-9.576,0-9.576-9.576-14.364-14.365l-43.095-143.646l0,0h-67.035
			V1814.75z M474.038,1623.219l-14.365,119.707h62.248c43.094,0,67.035-14.365,71.823-43.094l4.788-23.941c0-4.789,0-9.576,0-9.576
			c0-28.73-19.152-43.096-57.459-43.096H474.038z"/>
		<path fill="#23467D" d="M919.346,1556.184c9.577,0,14.365,4.789,14.365,14.365l67.035,383.061c0,9.576,0,14.365-14.364,14.365
			h-52.671c-9.577,0-14.365-4.789-14.365-14.365l-9.576-71.824H794.852l-28.729,76.613c-4.789,9.576-9.577,14.363-19.153,14.363
			h-52.671c-9.576,0-14.365-4.787-9.576-14.363l162.801-383.061c4.788-9.578,9.576-14.365,19.152-14.365h52.671V1556.184z
			 M885.828,1747.715c-4.788-33.518-4.788-110.131-4.788-110.131c0,4.789-19.153,86.189-33.518,110.131l-28.73,67.035h76.612
			L885.828,1747.715z"/>
		<path fill="#23467D" d="M1350.29,1958.399c0,9.576-4.789,14.363-14.365,14.363h-47.883c-9.576,0-9.576-4.787-14.364-9.576
			l-90.978-201.105c-4.788-14.365-14.364-38.307-19.152-47.883l-28.73,244.201c0,9.576-4.788,14.363-14.364,14.363h-47.883
			c-9.576,0-14.364-4.787-14.364-14.363l47.883-383.061c0-9.578,4.788-14.365,19.152-14.365h47.883c9.576,0,9.576,0,14.365,4.787
			l95.765,210.684c4.788,14.365,14.364,33.518,14.364,43.096l28.73-244.201c0-9.578,4.788-14.365,14.364-14.365h47.883
			c9.576,0,14.364,4.787,14.364,14.365L1350.29,1958.399z"/>
		<path fill="#23467D" d="M1666.314,1661.526c0-4.787,0-4.787,0-4.787c0-23.941-19.153-38.307-57.459-38.307
			s-62.247,14.365-62.247,43.094v4.789c0,4.787,0,9.576,0,9.576c0,14.365,9.576,23.941,19.152,23.941l100.554,38.307
			c38.306,14.363,62.247,43.094,62.247,81.4c0,4.787,0,9.576,0,14.363l-4.787,43.096c-4.789,52.67-43.095,100.553-153.225,100.553
			c-100.554,0-138.859-43.094-138.859-90.977c0-4.789,0-4.789,0-14.365l4.788-33.518c0-9.576,4.788-14.365,14.364-14.365h52.671
			c9.577,0,14.365,4.789,14.365,14.365l-4.788,23.941c0,4.789,0,9.576,0,9.576c0,23.941,19.152,38.307,62.247,38.307
			s67.035-14.365,67.035-43.094l4.788-19.154c0-4.787,0-9.576,0-9.576c0-19.152-23.941-28.73-47.882-38.307l-86.188-33.518
			c-28.73-14.365-52.672-38.307-52.672-71.824c0-4.787,0-9.576,0-14.363l4.789-28.73c4.788-52.67,38.306-100.553,148.436-100.553
			c100.554,0,134.071,43.094,134.071,86.188c0,4.789,0,4.789,0,14.365l-4.788,23.941c0,9.576-4.788,14.365-19.153,14.365h-47.882
			c-9.577,0-14.365-4.789-14.365-14.365L1666.314,1661.526z"/>
		<path fill="#23467D" d="M2073.317,1556.184c9.576,0,14.364,4.789,14.364,14.365l-4.788,38.307c0,9.576-4.788,14.363-19.153,14.363
			h-153.225l-14.364,100.555h143.647c9.577,0,14.365,4.787,14.365,14.365l-4.788,38.305c0,9.576-4.789,14.365-19.153,14.365
			h-143.647l-19.153,162.801c0,9.576-4.788,14.365-14.365,14.365h-52.671c-9.576,0-14.364-4.789-14.364-14.365l47.883-383.061
			c0-9.576,4.788-14.365,14.364-14.365H2073.317L2073.317,1556.184z"/>
		<path fill="#23467D" d="M2116.411,1972.764c-9.576,0-14.365-4.789-14.365-14.365l47.883-383.061
			c0-9.578,4.789-14.365,14.365-14.365h210.684c9.576,0,14.364,4.787,14.364,14.365l-4.788,38.305
			c0,9.578-4.788,14.365-19.152,14.365h-138.86l-14.364,100.553h134.071c9.576,0,14.364,4.789,14.364,14.365l-4.788,38.307
			c0,9.576-4.788,14.365-19.153,14.365h-129.283l-14.364,114.918h148.436c9.577,0,14.365,4.787,14.365,14.365l-9.576,33.518
			c0,9.576-4.788,14.363-14.365,14.363h-215.472V1972.764z"/>
		<path fill="#23467D" d="M2513.837,1814.75l-19.153,143.648c0,9.576-4.788,14.363-14.364,14.363h-52.671
			c-9.577,0-14.365-4.787-14.365-14.363l47.883-383.061c0-9.578,4.788-14.365,14.364-14.365h124.495
			c100.554,0,138.859,43.094,138.859,95.766c0,4.787,0,9.576,0,14.363l-4.788,52.672c-4.788,38.307-23.941,71.824-76.611,86.188
			l47.882,153.225c4.788,9.578-4.788,14.365-14.364,14.365h-52.671c-9.577,0-9.577-9.576-14.364-14.365l-43.095-143.646l0,0h-67.036
			V1814.75z M2537.778,1623.219l-14.365,119.707h62.248c43.094,0,67.035-14.365,71.823-43.094l4.788-23.941c0-4.789,0-9.576,0-9.576
			c0-28.73-19.152-43.096-57.459-43.096H2537.778z"/>
	</g>
	<g>
		<path fill="#23467D" d="M1446.055,1264.101c-4.788,0-9.576,0-4.788-9.576l47.883-402.214c0-4.789,4.788-9.577,9.576-9.577h100.554
			c86.188,0,119.706,33.519,119.706,71.824c0,4.788,0,4.788,0,14.365l-4.788,38.306c-4.788,33.518-23.941,62.247-67.036,71.824
			c43.095,9.576,67.036,33.518,67.036,67.035c0,4.788,0,9.576,0,14.365l-4.788,52.671c-4.788,47.882-38.306,86.188-138.859,86.188
			h-124.495V1264.101z M1493.938,1062.993l-19.153,172.378h90.977c71.824,0,100.554-23.941,105.342-62.247l4.789-47.883
			c0-4.788,0-9.577,0-9.577c0-33.518-23.941-52.671-86.189-52.671H1493.938z M1517.879,876.251l-19.153,158.013h86.188
			c67.036,0,90.978-23.94,95.766-62.247l4.788-38.306c0-4.788,0-9.577,0-9.577c0-28.729-23.941-52.671-86.188-52.671h-81.4V876.251z
			"/>
		<path fill="#23467D" d="M1948.822,852.311c4.788,0,9.576,4.788,9.576,9.576l76.612,402.214c0,4.788,0,9.576-4.788,9.576h-19.153
			c-4.788,0-9.576-4.788-9.576-9.576l-23.941-119.706h-148.436l-52.672,119.706c-4.787,4.788-4.787,9.576-9.576,9.576h-19.153
			c-4.788,0-4.788-4.788-4.788-9.576l172.377-402.214c4.789-4.788,4.789-9.576,9.577-9.576H1948.822z M1944.034,948.075
			c-4.789-9.576-9.577-62.247-9.577-62.247c-4.788,9.576-14.364,47.883-19.153,62.247l-71.823,162.801h134.071L1944.034,948.075z"/>
		<path fill="#23467D" d="M2360.612,1259.313c0,4.788-4.788,9.576-9.576,9.576h-14.365c-4.788,0-4.788,0-4.788-4.788
			l-138.859-311.237c-4.788-9.576-9.577-28.729-14.364-38.306l-43.095,344.755c0,4.788-4.788,9.576-9.577,9.576h-14.364
			c-4.788-4.788-4.788-4.788-4.788-9.576l47.883-402.214c0-4.788,4.787-9.576,9.576-9.576h14.365c4.787,0,4.787,0,4.787,4.788
			l138.86,311.236c4.788,9.577,14.364,28.729,14.364,33.519l43.095-344.755c0-4.788,4.788-9.577,9.576-9.577h14.365
			c4.788,0,4.788,4.789,4.788,9.577L2360.612,1259.313z"/>
		<path fill="#23467D" d="M2734.097,1259.313c4.788,4.788,0,9.576-4.788,9.576h-23.941c-4.788,0-9.576-4.788-9.576-9.576
			l-138.86-186.742h-23.941l-23.94,186.742c0,4.788-4.788,9.576-9.577,9.576h-19.152c-4.789,0-9.577-4.788-4.789-9.576
			l47.883-402.214c0-4.788,4.788-9.576,9.576-9.576h19.153c4.788,0,4.788,4.788,4.788,9.576l-19.152,186.742h19.152l172.378-186.742
			c4.788-4.788,9.576-4.788,14.364-4.788h19.153c4.788,0,4.788,4.788,4.788,9.576l-181.953,191.53L2734.097,1259.313z"/>
	</g>
	<rect x="76.612" y="847.521" fill="#23467D" width="1139.605" height="47.883"/>
	<rect x="76.612" y="1039.053" fill="#23467D" width="924.134" height="47.882"/>
	<rect x="76.612" y="1197.065" fill="#23467D" width="608.109" height="47.882"/>
</g>
</svg>
