<svg width="3118" height="1500" viewBox="0 0 3118 1500" fill="none" xmlns="http://www.w3.org/2000/svg">
<path d="M1232.6 173.787H93V221.67H1232.6V173.787Z" fill="#23467D"/>
<path d="M1017.13 365.319H93V413.201H1017.13V365.319Z" fill="#23467D"/>
<path d="M701.109 523.331H93V571.213H701.109V523.331Z" fill="#23467D"/>
<path d="M1944.7 433.453C1937.73 470.973 1920.71 500.689 1893.65 522.604C1866.76 544.518 1834.47 554.977 1796.78 553.98C1774.37 553.482 1754.78 548.004 1738.01 537.545C1721.25 526.92 1708.21 511.729 1698.92 491.974C1689.62 472.052 1684.47 450.055 1683.48 425.982C1682.81 412.369 1683.39 399.088 1685.22 386.139L1689.45 356.256C1697.26 301.803 1716.35 258.888 1746.73 227.511C1777.28 195.968 1814.38 180.611 1858.04 181.441C1892.08 182.105 1919.05 193.146 1938.97 214.562C1958.9 235.812 1969.44 265.362 1970.6 303.214H1924.03C1921.88 252.413 1901.95 225.021 1864.27 221.036L1856.05 220.538C1824.67 219.708 1798.44 231.412 1777.36 255.65C1756.44 279.723 1742.91 312.677 1736.77 354.513L1731.29 392.115L1729.79 414.029C1728.8 444.576 1734.19 468.897 1745.98 486.993C1757.93 504.923 1775.62 514.22 1799.02 514.884C1824.26 515.714 1845.09 509.654 1861.53 496.705C1878.13 483.756 1890.75 462.921 1899.38 434.2L1944.7 433.453ZM2204.68 454.371H2057.76L2008.2 549H1958.15L2155.13 186.422H2196.22L2267.93 549H2221.87L2204.68 454.371ZM2078.43 415.025H2197.71L2167.58 245.938L2078.43 415.025ZM2521.94 455.616C2525.59 429.054 2511.81 409.63 2480.6 397.345L2437.52 381.656L2423.08 375.431C2374.6 353.351 2351.94 322.306 2355.09 282.296C2356.75 262.208 2363.64 244.444 2375.76 229.005C2387.88 213.565 2403.9 201.695 2423.82 193.395C2443.91 184.928 2465.24 180.943 2487.82 181.441C2509.74 181.939 2529.24 186.837 2546.34 196.134C2563.61 205.431 2576.72 218.463 2585.69 235.23C2594.65 251.832 2598.64 270.592 2597.64 291.51L2550.58 291.261C2552.24 269.015 2547.26 251.832 2535.63 239.713C2524.01 227.428 2507.41 221.119 2485.83 220.787C2463.09 220.455 2444.08 225.768 2428.8 236.725C2413.53 247.682 2404.73 262.623 2402.41 281.549C2399.09 306.285 2414.28 325.045 2447.98 337.828L2485.08 351.026L2503.76 358.995C2550.58 380.577 2572.24 412.618 2568.75 455.118C2566.93 475.538 2560.04 493.219 2548.09 508.16C2536.13 522.936 2519.86 534.391 2499.28 542.525C2478.86 550.66 2456.86 554.479 2433.29 553.98C2410.54 553.814 2389.71 549 2370.78 539.537C2352.02 529.908 2337.74 516.793 2327.95 500.191C2318.15 483.59 2313.84 464.747 2315 443.663L2361.82 443.912C2360.32 465.494 2366.13 482.677 2379.25 495.46C2392.53 508.077 2411.21 514.552 2435.28 514.884C2459.35 515.216 2479.19 509.986 2494.79 499.195C2510.4 488.404 2519.45 473.878 2521.94 455.616ZM2885.26 549H2838.45L2867.58 381.407H2690.53L2661.39 549H2614.58L2677.58 186.422H2724.39L2697.25 342.311H2874.06L2901.2 186.422H2948.27L2885.26 549ZM150.239 1303.98C112.554 1303.15 82.3389 1290.7 59.5947 1266.63C36.8506 1242.55 23.9844 1210.35 20.9961 1170.01C19.3359 1150.08 20.9131 1126.68 25.7275 1099.78C30.542 1072.72 39.0918 1047.82 51.377 1025.07C63.6621 1002.33 79.0186 983.404 97.4463 968.297C128.325 942.896 163.853 930.611 204.028 931.441C228.765 931.939 250.347 937.667 268.774 948.624C287.368 959.415 302.227 975.021 313.35 995.44C324.473 1015.86 330.947 1039.1 332.773 1065.17C334.102 1083.59 332.939 1104.6 329.287 1128.17C325.801 1151.58 319.243 1173.99 309.614 1195.41C300.151 1216.66 287.866 1235.42 272.759 1251.69C257.651 1267.96 239.805 1280.9 219.219 1290.53C198.799 1300 175.806 1304.48 150.239 1303.98ZM247.358 1064.42C245.698 1022.92 229.595 1001.33 199.048 999.674C175.474 998.512 155.967 1007.89 140.527 1027.81C125.088 1047.57 114.878 1076.79 109.897 1115.47C106.743 1139.38 105.581 1157.89 106.411 1171C108.071 1213.17 124.341 1234.83 155.22 1236C175.474 1236.99 192.905 1229.77 207.515 1214.33C222.124 1198.73 232.666 1176.15 239.141 1146.6C245.615 1116.88 248.354 1089.49 247.358 1064.42ZM638.823 1299H556.396L469.736 1070.15L429.893 1299H344.727L407.48 936.422H490.654L577.065 1165.27L616.66 936.422H701.826L638.823 1299ZM820.859 1299L883.613 936.422L990.195 936.671C1021.57 936.671 1048.96 944.972 1072.37 961.573C1095.78 978.009 1112.38 1000.5 1122.18 1029.06C1130.64 1054.13 1133.22 1081.19 1129.9 1110.24L1128.15 1125.43C1123.67 1157.97 1112.88 1187.44 1095.78 1213.83C1078.68 1240.23 1056.68 1260.98 1029.79 1276.09C1002.9 1291.03 973.843 1298.67 942.632 1299H820.859ZM957.324 1003.91L917.729 1231.76L942.632 1232.01C971.851 1232.01 995.259 1220.72 1012.86 1198.15C1030.62 1175.57 1041.16 1141.04 1044.48 1094.55L1044.98 1086.33C1046.14 1059.77 1041.99 1039.6 1032.53 1025.82C1023.07 1012.04 1008.87 1004.82 989.946 1004.16L957.324 1003.91ZM1388.38 1145.35H1255.16L1239.97 1231.76H1397.6L1385.89 1299H1143.1L1205.85 936.422H1449.15L1437.44 1003.91H1279.56L1266.11 1080.36H1399.59L1388.38 1145.35ZM1519.37 1231.76H1667.04L1655.34 1299H1422.5L1485.25 936.422H1570.67L1519.37 1231.76ZM1784.33 1299H1699.17L1762.17 936.422H1847.08L1784.33 1299ZM1998.99 1199.39L2110.05 936.422H2207.67L2032.36 1299H1939.22L1878.46 936.422H1970.6L1998.99 1199.39ZM2419.84 1145.35H2286.61L2271.42 1231.76H2429.05L2417.35 1299H2174.55L2237.3 936.422H2480.6L2468.9 1003.91H2311.02L2297.57 1080.36H2431.04L2419.84 1145.35ZM2608.85 1171H2561.53L2539.12 1299H2453.96L2516.71 936.422L2644.71 936.671C2685.71 936.671 2717.26 946.3 2739.34 965.558C2761.58 984.649 2771.54 1010.8 2769.22 1044C2767.39 1070.23 2759.84 1091.98 2746.56 1109.24C2733.28 1126.34 2714.68 1139.87 2690.78 1149.83L2739.58 1294.77V1299H2648.69L2608.85 1171ZM2572.99 1103.52L2622.79 1104.01C2636.41 1104.01 2648.19 1100.69 2658.15 1094.05C2668.28 1087.41 2675.5 1078.37 2679.82 1066.91C2684.14 1055.29 2685.38 1044.08 2683.55 1033.29C2680.23 1014.86 2668.45 1005.15 2648.19 1004.16L2590.42 1003.91L2572.99 1103.52ZM2930.09 1093.31L3021.73 936.422H3117.6L2961.22 1172.75L2939.55 1299H2852.89L2876.3 1164.53L2803.83 936.671L2892.49 936.422L2930.09 1093.31Z" fill="#23467D"/>
</svg>
